<svg xmlns="http://www.w3.org/2000/svg" width="1200" height="520" viewBox="0 0 1200 520" role="img" aria-labelledby="title desc"><title id="title">Partner showcase wireframe</title><desc id="desc">Neon framed partner carousel with concierge tooltip.</desc><rect width="1200" height="520" fill="#05070b"/><rect x="64" y="64" width="1072" height="392" rx="30" fill="#101827" stroke="#a855f7" stroke-width="2"/><text x="96" y="124" fill="#46f5ff" font-family="Arial" font-size="20" font-weight="700">PARTNER VITRINA</text><rect x="96" y="158" width="520" height="40" rx="8" fill="#fff" opacity=".14"/><rect x="96" y="246" width="1008" height="116" rx="22" fill="#030712" stroke="#46f5ff" stroke-opacity=".45"/>
  <g fill="#172033" stroke="#fff" stroke-opacity=".18"><rect x="126" y="270" width="150" height="68" rx="16"/><rect x="300" y="270" width="150" height="68" rx="16"/><rect x="474" y="270" width="150" height="68" rx="16"/><rect x="648" y="270" width="150" height="68" rx="16"/><rect x="822" y="270" width="150" height="68" rx="16"/><rect x="996" y="270" width="78" height="68" rx="16"/></g>
  <text x="134" y="312" fill="#fff" font-family="Arial" font-size="18" font-weight="700">Booking</text><text x="326" y="312" fill="#fff" font-family="Arial" font-size="18" font-weight="700">Amazon</text><text x="496" y="312" fill="#fff" font-family="Arial" font-size="18" font-weight="700">Drimsim</text><rect x="822" y="386" width="282" height="40" rx="20" fill="#ffc300" opacity=".18" stroke="#ffc300"/><text x="846" y="412" fill="#fff3b0" font-family="Arial" font-size="16" font-weight="700">Ask me about these partners.</text></svg>
